<?xml version="1.0" encoding="UTF-8"?>
<svg id="Layer_1" data-name="Layer 1" xmlns="http://www.w3.org/2000/svg" width="1024" height="1024" viewBox="0 0 1024 1024">
  <defs>
    <style>
      .cls-1 {
        fill: #717171;
      }

      .cls-2 {
        fill: #dadada;
      }

      .cls-3 {
        fill: #919191;
      }
    </style>
  </defs>
  <ellipse class="cls-2" cx="512" cy="512" rx="509.98" ry="511.38"/>
  <path class="cls-1" d="m18.43,388.11c6.95-27.8,16.27-54.99,27.91-81.31l5.77-13.05h215.39l-4.52,25.58c-4.62,26.2-8.1,52.1-10.57,77.63-2.53,26.15-4.1,52.35-4.85,78.47l-.61,21.23H2.98l1.75-23.45c2.14-28.76,6.73-57.22,13.7-85.11h0Z"/>
  <path class="cls-3" d="m548.92,293.75h174.63l3.48,17.65c5.15,26.13,9.16,52.7,12.14,79.53,3.04,27.36,4.96,55.18,5.88,83.23l.74,22.51h-218.69v-202.92h21.83Z"/>
  <path class="cls-1" d="m195.25,113.93c40.81-32.46,86.61-58.65,135.9-77.38l66.35-25.21-40.85,58.13c-16.96,24.13-31.35,50.87-43.5,78.57-14.2,32.38-25.38,66.14-34.04,98.65l-4.34,16.29H66.4l22.76-33.94c29.45-43.9,65.31-82.67,106.08-115.1h0Z"/>
  <path class="cls-1" d="m828.25,910.08c-40.82,32.47-86.63,58.67-135.94,77.4l-66.36,25.2,40.87-58.12c17-24.17,31.43-50.95,43.6-78.68,14.21-32.37,25.41-66.11,34.07-98.64l4.34-16.29h208.37l-22.77,33.94c-29.48,43.94-65.37,82.74-106.17,115.19h0Z"/>
  <path class="cls-1" d="m107.23,760.95h167.54l4.34,16.29c8.66,32.53,19.86,66.28,34.08,98.65,12.18,27.73,26.61,54.51,43.61,78.68l40.85,58.09-66.35-25.17c-49.33-18.72-95.17-44.91-136.01-77.39-40.8-32.45-76.68-71.25-106.14-115.21l-22.74-33.94h40.82Z"/>
  <path class="cls-1" d="m18.49,635.97c-6.97-27.9-11.56-56.38-13.75-85.18l-1.78-23.45h243.97l.61,21.23c.75,26.11,2.32,52.31,4.85,78.46,2.47,25.53,5.95,51.43,10.57,77.63l4.52,25.58H52.11l-5.76-13.05c-11.62-26.32-20.91-53.48-27.85-81.23h0Z"/>
  <path class="cls-3" d="m548.92,527.34h196.86l-.74,22.51c-.92,28.04-2.85,55.83-5.88,83.17-2.98,26.83-6.99,53.42-12.14,79.58l-3.47,17.65h-196.46v-202.91h21.83,0Z"/>
  <path class="cls-1" d="m916.36,262.98h-167.53l-4.34-16.29c-8.66-32.5-19.85-66.24-34.06-98.61-12.16-27.71-26.57-54.46-43.55-78.61l-40.88-58.14,66.38,25.22c49.3,18.73,95.12,44.93,135.95,77.4,40.78,32.43,76.65,71.19,106.11,115.09l22.77,33.94h-40.85,0Z"/>
  <path class="cls-1" d="m771.1,396.97c-2.48-25.53-5.96-51.43-10.59-77.64l-4.52-25.58h215.5l5.76,13.05c11.57,26.19,20.83,53.35,27.77,81.19,6.98,27.99,11.55,56.49,13.71,85.23l1.77,23.45h-243.86l-.64-21.23c-.78-26.1-2.38-52.3-4.92-78.47h0Z"/>
  <path class="cls-1" d="m957.3,730.25h-201.31l4.52-25.58c4.62-26.2,8.1-52.1,10.57-77.63,2.53-26.15,4.1-52.35,4.85-78.46l.61-21.23h243.96l-1.74,23.37c-2.14,28.77-6.71,57.23-13.66,85.13-6.96,27.9-16.25,55.11-27.85,81.37l-5.76,13.05h-14.19Z"/>
  <path id="_495650888" data-name=" 495650888" class="cls-3" d="m527.09,991.34v-230.39h189.68l-8.5,28.14c-13.05,43.2-34.29,98.29-64.36,143.58-23.27,35.06-51.97,64.39-86.63,78.79l-30.19,12.54v-32.66h0Z"/>
  <path id="_495626360" data-name=" 495626360" class="cls-3" d="m496.41,782.78v241.14l-30.19-12.57c-34.63-14.41-63.31-43.74-86.58-78.78-30.06-45.26-51.33-100.32-64.4-143.49l-8.53-28.14h189.7v21.83h0Z"/>
  <path id="_495624944" data-name=" 495624944" class="cls-3" d="m643.89,91.3c30.06,45.27,51.32,100.35,64.38,143.53l8.51,28.14h-189.69V.01l30.19,12.54c34.65,14.39,63.34,43.71,86.61,78.76h0Z"/>
  <path id="_495632552" data-name=" 495632552" class="cls-3" d="m496.41,32.68v230.29h-189.61l8.53-28.14c13.12-43.28,34.38-98.43,64.33-143.51,23.27-35.04,51.95-64.36,86.57-78.76l30.19-12.56v32.68h0Z"/>
  <path class="cls-3" d="m474.58,730.25h-174.51l-3.48-17.65c-5.17-26.21-9.22-52.86-12.22-79.77-3.05-27.27-4.99-54.99-5.91-82.98l-.74-22.51h218.7v202.91h-21.83,0Z"/>
  <path class="cls-3" d="m284.37,391.1c3-26.89,7.05-53.51,12.22-79.7l3.49-17.65h196.34v202.92h-218.7l.74-22.51c.92-28,2.86-55.76,5.91-83.06h0Z"/>
</svg>