<?xml version="1.0" encoding="UTF-8"?>
<svg id="Layer_1" data-name="Layer 1" xmlns="http://www.w3.org/2000/svg" width="1024" height="280.48" viewBox="0 0 1024 280.48">
  <defs>
    <style>
      .cls-1 {
        fill: #717171;
      }

      .cls-2 {
        fill: #dadada;
      }

      .cls-3 {
        font-family: FuturaBT-Medium, 'Futura Md BT';
        font-size: 229.07px;
        font-weight: 500;
      }

      .cls-3, .cls-4 {
        fill: #919191;
      }

      .cls-5 {
        letter-spacing: -.04em;
      }
    </style>
  </defs>
  <g>
    <ellipse class="cls-2" cx="147.93" cy="140.24" rx="136.6" ry="136.97"/>
    <path class="cls-1" d="m15.73,107.06c1.86-7.45,4.36-14.73,7.48-21.78l1.55-3.49h57.69l-1.21,6.85c-1.24,7.02-2.17,13.96-2.83,20.79-.68,7-1.1,14.02-1.3,21.02l-.16,5.69H11.6l.47-6.28c.57-7.7,1.8-15.33,3.67-22.8h0Z"/>
    <path class="cls-4" d="m157.82,81.78h46.77l.93,4.73c1.38,7,2.45,14.12,3.25,21.3.81,7.33,1.33,14.78,1.57,22.29l.2,6.03h-58.58v-54.35h5.85Z"/>
    <path class="cls-1" d="m63.09,33.62c10.93-8.69,23.2-15.71,36.4-20.73l17.77-6.75-10.94,15.57c-4.54,6.46-8.4,13.63-11.65,21.04-3.8,8.67-6.8,17.71-9.12,26.42l-1.16,4.36H28.58l6.1-9.09c7.89-11.76,17.49-22.14,28.41-30.83h0Z"/>
    <path class="cls-1" d="m232.64,246.87c-10.93,8.7-23.2,15.71-36.41,20.73l-17.78,6.75,10.95-15.57c4.55-6.47,8.42-13.65,11.68-21.07,3.81-8.67,6.8-17.71,9.12-26.42l1.16-4.36h55.81l-6.1,9.09c-7.9,11.77-17.51,22.16-28.44,30.85h0Z"/>
    <path class="cls-1" d="m39.52,206.92h44.87l1.16,4.36c2.32,8.71,5.32,17.75,9.13,26.42,3.26,7.43,7.13,14.6,11.68,21.07l10.94,15.56-17.77-6.74c-13.21-5.01-25.49-12.03-36.43-20.73-10.93-8.69-20.54-19.08-28.43-30.86l-6.09-9.09h10.93Z"/>
    <path class="cls-1" d="m15.75,173.45c-1.87-7.47-3.1-15.1-3.68-22.81l-.48-6.28h65.35l.16,5.69c.2,6.99.62,14.01,1.3,21.02.66,6.84,1.59,13.78,2.83,20.79l1.21,6.85H24.75l-1.54-3.49c-3.11-7.05-5.6-14.32-7.46-21.76h0Z"/>
    <path class="cls-4" d="m157.82,144.35h52.73l-.2,6.03c-.25,7.51-.76,14.95-1.57,22.28-.8,7.19-1.87,14.31-3.25,21.31l-.93,4.73h-52.62v-54.35h5.85,0Z"/>
    <path class="cls-1" d="m256.24,73.54h-44.87l-1.16-4.36c-2.32-8.71-5.32-17.74-9.12-26.41-3.26-7.42-7.12-14.59-11.67-21.05l-10.95-15.57,17.78,6.76c13.2,5.02,25.48,12.03,36.41,20.73,10.92,8.68,20.53,19.07,28.42,30.83l6.1,9.09h-10.94,0Z"/>
    <path class="cls-1" d="m217.33,109.43c-.66-6.84-1.6-13.78-2.84-20.79l-1.21-6.85h57.72l1.54,3.49c3.1,7.02,5.58,14.29,7.44,21.75,1.87,7.5,3.09,15.13,3.67,22.83l.47,6.28h-65.32l-.17-5.69c-.21-6.99-.64-14.01-1.32-21.02h0Z"/>
    <path class="cls-1" d="m267.21,198.7h-53.92l1.21-6.85c1.24-7.02,2.17-13.95,2.83-20.79.68-7,1.1-14.02,1.3-21.02l.16-5.69h65.34l-.47,6.26c-.57,7.71-1.8,15.33-3.66,22.8-1.86,7.47-4.35,14.76-7.46,21.79l-1.54,3.49h-3.8Z"/>
    <path id="_495650888" data-name=" 495650888" class="cls-4" d="m151.98,268.63v-61.71h50.8l-2.28,7.54c-3.5,11.57-9.19,26.33-17.24,38.46-6.23,9.39-13.92,17.25-23.2,21.1l-8.09,3.36v-8.75h0Z"/>
    <path id="_495626360" data-name=" 495626360" class="cls-4" d="m143.76,212.77v64.59l-8.09-3.37c-9.28-3.86-16.96-11.72-23.19-21.1-8.05-12.12-13.75-26.87-17.25-38.43l-2.28-7.54h50.81v5.85h0Z"/>
    <path id="_495624944" data-name=" 495624944" class="cls-4" d="m183.26,27.56c8.05,12.13,13.74,26.88,17.24,38.44l2.28,7.54h-50.81V3.11l8.09,3.36c9.28,3.85,16.96,11.71,23.2,21.09h0Z"/>
    <path id="_495632552" data-name=" 495632552" class="cls-4" d="m143.76,11.86v61.68h-50.79l2.28-7.54c3.51-11.59,9.21-26.36,17.23-38.44,6.23-9.38,13.91-17.24,23.19-21.1l8.09-3.36v8.75h0Z"/>
    <path class="cls-4" d="m137.91,198.7h-46.74l-.93-4.73c-1.38-7.02-2.47-14.16-3.27-21.37-.82-7.3-1.34-14.73-1.58-22.22l-.2-6.03h58.58v54.35h-5.85,0Z"/>
    <path class="cls-4" d="m86.96,107.86c.8-7.2,1.89-14.33,3.27-21.35l.93-4.73h52.59v54.35h-58.58l.2-6.03c.25-7.5.77-14.94,1.58-22.25h0Z"/>
  </g>
  <text class="cls-3" transform="translate(332.28 207.52)"><tspan class="cls-5" x="0" y="0">L</tspan><tspan x="99.55" y="0">OGO</tspan></text>
</svg>